<svg xmlns="http://www.w3.org/2000/svg" viewBox="0 0 64 64" role="img" aria-labelledby="title"><title>CyberBee Solutions mark</title><defs><linearGradient id="g" x1="0" y1="0" x2="1" y2="1"><stop stop-color="#ffd66f"/><stop offset="1" stop-color="#f2b735"/></linearGradient></defs><path fill="#0f1d30" stroke="url(#g)" stroke-width="2" d="M32 3 56 17v30L32 61 8 47V17z"/><path fill="url(#g)" d="M32 17c-4.4 0-8 3.6-8 8v3.2l-4.5-3.1-3.1 4.4 7.6 5.3V39c0 4.4 3.6 8 8 8s8-3.6 8-8v-4.2l7.6-5.3-3.1-4.4-4.5 3.1V25c0-4.4-3.6-8-8-8Z"/><path fill="#0f1d30" d="M27 25h10v4H27zm0 7h10v4H27zm1 7h8v3h-8z"/><path stroke="#ffd66f" stroke-width="2" stroke-linecap="round" d="M22 18 18 14m24 4 4-4M15 38h-5m44 0h-5"/></svg>